<svg data-name="Layer 2" xmlns="http://www.w3.org/2000/svg" viewBox="0 0 658.67 163.43">
  <defs>
    <linearGradient id="a" x1="4.59" y1="210.5" x2="4.59" y2="61.74" gradientTransform="matrix(1 0 0 -1 0 217.78)" gradientUnits="userSpaceOnUse">
      <stop offset="0" stop-color="#3557ff"/>
      <stop offset=".14" stop-color="#3052ed"/>
      <stop offset=".38" stop-color="#2644d2"/>
      <stop offset=".68" stop-color="#142ea7"/>
      <stop offset="1" stop-color="#00157c"/>
    </linearGradient>
  </defs>
  <path d="M4.59 0c2.46 0 4.59 2.02 4.59 4.59v152.79c0 2.46-2.02 4.59-4.59 4.59-2.46 0-4.59-2.02-4.59-4.59V4.59C.11 2.02 2.13 0 4.59 0Z" fill="url(#a)"/>
  <path d="M109.55 6.72c.45-1.12 1.46-3.47 2.8-4.14.67-.34 2.13-.34 2.35-1.34.22-1.01-.67-1.23-4.14-1.23h-10.42c-3.14 0-4.7 0-4.48 1.34.11.78 1.23.9 1.68 1.12 3.02.78 5.04 2.35 4.14 5.49-.9 3.14-14.11 41.78-14.11 41.78-.56 1.34-1.79 1.79-2.24-.34l-6.95-32.49c-.56-2.69-1.23-6.05-1.46-7.62 0 0-.45-2.13-2.91-2.13-1.9 0-2.69 1.34-2.91 1.79-.9 1.79-2.58 5.26-3.81 7.73L49.95 50.06c-.67 1.23-1.57.9-1.68-.56l-2.13-33.72c0-2.69-.22-7.84-.22-8.74 0-2.24 1.46-3.92 3.58-4.48.45-.11 1.68-.45 1.79-1.12C51.51.1 49.95.1 46.81.1H33.7c-2.13 0-3.14.22-2.91 1.34.11.67 1.23.9 1.68 1.12 1.46.45 2.46 1.34 3.02 2.69.34.78.45 1.34.45 1.34v.45c0 .11 0 .22.11.22.56 2.69 1.12 6.61 1.34 9.07l2.58 41.11c.22 2.69.11 6.72.9 8.4.78 1.68 4.59 1.57 6.16-.67.45-.67 22.07-41.22 22.07-41.22 1.23-2.46 2.69-2.24 3.25.45l6.83 33.49c.56 2.69 1.12 5.6 1.79 7.39.9 2.46 5.6 2.02 6.83-.34 1.12-2.02 2.24-4.93 3.14-7.51 0 0 17.81-48.62 18.59-50.74m57.04 15.83c-8.4 0-16.13 7.73-21.17 13.55-.11-.11.45-2.35 1.23-4.93l7.84-26.44c.78-2.58-.78-4.7-3.58-4.7h-6.61c-3.14 0-4.7 0-4.48 1.34.11.78 1.23.9 1.68 1.12 3.14.9 4.14 4.37 3.36 8.29C144.84 10.41 137 42 137 42c-.67 2.69-3.02 6.38-4.93 8.29 0 0-9.52 11.65-19.16 11.65-4.37 0-7.73-2.58-7.73-7.28 0-2.46.22-4.59.78-7.06 10.08-.9 28-5.6 28-18.37 0-5.15-4.93-6.61-9.19-6.61-13.55 0-27 16.58-27 31.7 0 6.27 2.91 12.66 11.54 12.66 16.24 0 25.09-15.91 25.54-16.35 0 0-.78 4.03-.78 6.38 0 6.83 4.93 10.08 11.2 10.08 4.48 0 9.3-1.57 13.78-4.26 3.47-2.13 6.72-4.82 9.41-7.95 5.26-5.94 8.85-13.22 8.85-20.16-.11-7.06-3.25-12.1-10.75-12.21m-44.01 3.03c2.46 0 3.81 1.57 3.81 4.03 0 10.19-11.31 14.79-20.05 15.35 1.57-6.16 8.96-19.38 16.24-19.38m42.79 22.29c-2.13 4.14-4.93 8.18-7.95 11.2-3.25 3.25-6.95 5.38-10.64 5.38-4.26 0-5.71-4.14-5.71-7.95 0-10.53 11.43-30.02 23.08-30.02 4.37 0 5.6 3.02 5.6 6.61 0 4.03-1.68 9.52-4.37 14.79" fill="#3557ff"/>
  <path d="M308.05 6.39c-8.4-6.61-24.2-6.28-24.2-6.28h-27.44c-3.14 0-4.26.22-4.03 1.57.11.67 1.23.9 1.68 1.12 2.02.56 3.36 1.57 3.47 3.58.11 2.24.34 9.41.34 11.87v42.68c0 2.69 2.24 4.93 4.93 4.93h16.35s11.65 0 20.16-3.92c12.77-5.82 20.05-16.91 20.05-30.58-.11-10.19-4.26-19.6-11.31-24.98M280.6 59.93h-.67c-3.81 0-7.73 0-9.75-2.02-1.01-1.01-1.57-2.58-1.57-4.7V22.97c0-6.27-.11-9.19.11-16.13 4.82-.56 7.28-.78 11.31-.78 7.17 0 14.67 1.01 20.95 7.95 4.26 4.82 6.39 10.87 6.39 18.37-.11 16.8-10.53 27.56-26.77 27.56m-28.11 3.35c-1.9-.67-3.47-3.02-3.47-4.14 0-1.23-1.23-53.88-1.23-53.88-.11-2.69.11-4.7-.67-4.93-.9-.34-4.59-.22-5.6-.22-2.35 0-4.14-.11-4.59.45-.45.56-1.34 2.46-2.24 4.93l-4.82 10.75c-1.23 2.46-3.36 6.61-4.59 8.96L218 39.44c-1.23 2.46-3.36 2.46-4.59.11l-7.62-14c-1.34-2.35-3.47-6.27-4.7-8.74L195.71 5.5c-1.12-2.46-1.57-4.48-2.13-4.93-.45-.45-2.35-.45-5.04-.45h-6.38c-3.14 0-4.59 0-4.37 1.34.11.78 1.23.9 1.68 1.12 2.02.56 2.69 2.91 2.69 4.14s0 49.18-.22 51.3c0 .34-.11.67-.22 1.12 0 0-.11 0-.11.11-.34 2.02-1.57 3.58-3.47 4.14-.45.11-1.57.34-1.68 1.12-.22 1.34 1.23 1.34 4.48 1.34h10.53c3.14 0 4.7 0 4.48-1.34-.11-.78-1.23-.9-1.68-1.12-2.02-.56-2.8-1.79-3.47-4.14-.34-1.57-.56-3.58-.56-3.58-.11-2.69-.22-7.17-.11-9.97v-.9c0-2.69.11-7.17.22-9.97l.22-10.75c.11-2.69 1.12-3.02 2.46-.56l7.06 13.22c1.34 2.35 8.07 15.23 9.3 17.7 1.01 2.02 1.23 2.8 4.48 2.91 3.58 0 3.58-.9 5.04-4.14 1.12-2.35 16.24-32.26 16.24-32.26 1.23-2.46 2.35-2.24 2.35.56 0 0 .22 36.52-.11 38.09 0 .22-.11.45-.11.56-.56 1.57-1.57 2.8-3.25 3.25-.45.11-1.57.34-1.68 1.12-.22 1.34 1.23 1.34 4.48 1.34h13.22c3.14 0 4.7 0 4.48-1.34-.45-.9-1.57-1.12-2.02-1.23M316 3.92c0-1.9 1.46-3.25 3.25-3.25s3.25 1.46 3.25 3.25c0 1.9-1.46 3.25-3.25 3.25S316 5.83 316 3.92m3.25 3.92c2.13 0 4.03-1.68 4.03-3.92S321.49 0 319.25 0s-4.03 1.68-4.03 3.92 1.9 3.92 4.03 3.92m-.78-3.58h.78l1.23 2.02h.78l-1.34-2.02c.67-.11 1.23-.45 1.23-1.23 0-.9-.56-1.34-1.57-1.34h-1.68v4.59h.67l-.11-2.02Zm0-.56V2.24h.9c.45 0 1.01.11 1.01.67 0 .67-.56.78-1.12.78h-.78ZM30.92 95.1h16.02v25.43h22.07V95.1H84.8v66.76H68.89v-27.44H46.82v27.44H30.91V95.1ZM93.98 136.33c0-16.47 11.87-26.66 24.08-26.66 14.79 0 21.96 10.64 21.96 24.53 0 2.91-.34 5.49-.56 6.95h-30.02c1.46 6.83 6.27 9.86 12.66 9.86 3.7 0 7.39-1.12 10.98-3.14l5.15 9.52c-5.38 3.81-12.32 5.71-18.37 5.71-14.56 0-25.88-9.75-25.88-26.77Zm32.49-5.83c0-5.04-2.24-8.85-7.95-8.85-4.48 0-8.29 2.91-9.3 8.85h17.25ZM146.97 147.64c0-10.75 8.29-16.58 28.34-18.71-.45-4.26-2.58-6.61-7.84-6.61-4.14 0-8.18 1.46-13.33 4.26l-5.49-10.31c6.61-4.14 13.89-6.61 21.96-6.61 13.11 0 20.5 7.28 20.5 23.3v28.9h-12.88l-1.12-5.15h-.45c-4.26 3.81-8.85 6.38-14.56 6.38-9.3 0-15.12-6.95-15.12-15.46Zm28.45-.9v-8.07c-10.19 1.34-13.22 4.14-13.22 7.73 0 3.02 1.9 4.37 5.38 4.37 3.25 0 5.38-1.57 7.84-4.03ZM203.54 145.4V90.29h15.79v55.78c0 3.25 1.68 4.26 2.91 4.26.56 0 1.01 0 1.79-.22l1.79 11.65c-1.79.67-4.37 1.34-7.84 1.34-10.87 0-14.45-7.06-14.45-17.7ZM235.12 143.05v-19.72h-6.83v-11.87l7.84-.56 1.79-15.57h13.11v15.57h11.99v12.43h-11.99v19.49c0 5.71 2.69 7.84 6.5 7.84 1.68 0 3.36-.22 4.7-.67l2.46 11.09c-2.69 1.01-6.61 2.02-11.54 2.02-12.77 0-18.03-8.07-18.03-20.05ZM272.31 90.17h15.79v17.25l-.67 9.07c3.81-3.36 8.74-6.83 15.68-6.83 11.09 0 15.79 7.84 15.79 20.61v31.59h-15.91v-29.57c0-7.06-1.79-9.19-5.94-9.19-3.58 0-5.71 1.79-8.96 4.59v34.17H272.3V90.17ZM352.86 163.43c-9.19 0-17.14-3.58-22.96-10.31l-.22-.22 3.25-3.47.22.22c5.15 5.82 12.1 9.07 19.72 9.07 10.19 0 16.69-5.26 16.69-13.55s-4.7-10.75-11.99-14l-10.31-4.59c-4.82-2.24-13.89-6.38-13.89-17.14 0-9.75 8.29-16.8 19.83-16.8 9.86 0 16.13 5.04 19.04 8.07l.22.22-3.02 3.47-.22-.22c-4.26-4.48-9.75-6.83-16.02-6.83-8.96 0-14.79 4.7-14.79 11.99 0 7.84 6.61 10.75 11.54 12.88l10.31 4.59c7.28 3.25 14.45 7.39 14.45 18.15 0 10.87-8.96 18.48-21.84 18.48ZM404.94 163.43c-13.55 0-22.96-10.75-22.96-26.1 0-17.03 11.2-26.21 21.73-26.21 11.99 0 19.04 8.63 19.04 23.08 0 1.23 0 2.35-.22 3.7v.22h-35.51c.22 12.32 7.73 20.84 18.37 20.84 4.82 0 9.3-1.34 13.11-3.92l.22-.22 2.13 3.47-.22.22c-3.81 2.58-8.29 4.93-15.68 4.93Zm-17.92-29.57h31.14c-.11-11.76-5.38-18.37-14.45-18.37-8.85 0-15.68 7.51-16.69 18.37ZM438.88 162.2h-4.82v-49.85h4.26l.45 8.74c3.7-6.5 8.63-9.97 13.89-9.97 1.46 0 3.25.11 4.93 1.01l.22.11-1.34 4.26-.34-.11c-1.34-.45-2.24-.56-4.14-.56-5.15 0-9.97 4.59-13.22 12.43v33.94h.11ZM485.6 162.2h-5.38l-18.82-49.85h5.26l11.43 31.93c1.57 4.48 3.14 9.19 4.7 13.33 1.57-4.14 3.14-8.74 4.7-13.33l.22-.56 11.2-31.25h5.04l-18.37 49.74ZM518.87 162.2h-4.82v-49.85h4.82v49.85Zm-2.36-61.16c-2.35 0-4.14-1.9-4.14-4.37s1.79-4.26 4.14-4.26 4.14 1.79 4.14 4.26-1.79 4.37-4.14 4.37ZM553.37 163.43c-13.44 0-22.52-10.42-22.52-26.1 0-7.84 2.35-14.56 6.83-19.38 4.14-4.48 9.75-6.95 15.91-6.95 7.28 0 11.65 3.36 14.67 6.27l.22.22-2.8 3.14-.22-.22c-3.25-3.25-7.28-4.93-11.76-4.93-10.31 0-17.7 9.19-17.7 21.84s7.17 21.62 17.7 21.62c4.7 0 9.3-1.9 13.11-5.38l.22-.22 2.58 3.14-.22.22c-4.48 4.37-9.97 6.72-16.02 6.72ZM599.74 163.43c-13.55 0-22.96-10.75-22.96-26.1 0-17.03 11.2-26.21 21.73-26.21 11.99 0 19.04 8.63 19.04 23.08 0 1.23 0 2.35-.22 3.7v.22h-35.51c.22 12.32 7.73 20.84 18.37 20.84 4.82 0 9.3-1.34 13.11-3.92l.22-.22 2.13 3.47-.22.22c-3.81 2.58-8.29 4.93-15.68 4.93Zm-17.92-29.57h31.14c-.11-11.76-5.38-18.37-14.45-18.37-8.74 0-15.57 7.51-16.69 18.37ZM641.97 163.43c-7.28 0-13.55-2.35-18.15-6.95l-.22-.22 2.69-3.14.22.22c3.47 3.02 7.84 5.71 15.68 5.71s11.65-4.82 11.65-9.52c0-6.05-6.16-8.74-11.87-10.75-6.95-2.46-15.57-5.49-15.57-14.34s8.4-13.33 16.13-13.33c5.04 0 10.08 1.79 14.11 5.15l.22.22-2.8 3.14-.22-.22c-3.81-2.8-7.28-4.03-11.65-4.03-8.07 0-10.98 4.7-10.98 8.85 0 5.6 5.6 7.73 11.09 9.75.56.22 1.01.45 1.57.56 7.28 2.69 14.79 5.6 14.79 14.67.11 6.83-5.15 14.23-16.69 14.23Z"/>
</svg>